<svg t="1687681741284" class="icon" viewBox="0 0 1024 1024" version="1.1" xmlns="http://www.w3.org/2000/svg" p-id="5269" width="200" height="200"><path d="M892.5 926.3H613c-33.6 0-38.8-5.2-38.8-39.1V733.5c0-36.5 2.6-41.7 44.1-41.7 10.4 0 15.5-2.6 15.5-15.7v-59.9c5.2-65.1 41.4-106.8 95.8-112 69.8-5.2 116.4 26 131.9 93.8 5.2 23.4 5.2 46.8 2.6 70.3-2.6 20.9 5.2 26.1 23.3 23.5 31 0 38.8 7.8 38.8 36.5v164.2c-0.1 28.6-5.2 33.8-33.7 33.8z m-85.4-351.7c-28.4-39.1-93.1-31.3-113.9 13-18.1 31.3-12.9 65.2-12.9 101.6 23.3 7.8 49.2 0 67.2 2.6h23.3c54.3 0 54.3 0 54.3-54.7 0-23.5-5.1-44.3-18-62.5z m-150-140.8c-88 28.7-129.4 93.8-139.8 185-7.7 88.6-2.5 174.6-5.1 263.1-2.6 31.3-12.9 44.4-44 44.4H178.4c-33.6 0-67.2-20.9-75.1-44.4-12.9-31.2-2.6-67.7 25.9-91.1 33.6-28.7 72.4-46.9 113.8-62.6 36.3-13 72.5-26 106.1-41.7 36.2-15.6 44-49.4 25.8-86-5.5-11.2-13.4-21-23.3-28.7-28.4-23.5-44-52.1-54.3-86-4.6-20.2-16.6-37.9-33.7-49.5-31-20.9-36.2-52.1-33.6-86 0-13 5.1-23.4 18-26 20.8-5.2 20.8-20.9 23.3-33.9 2.6-10.4 2.6-18.2 5.1-28.7 15.5-91.2 93.2-161.5 186.4-164.1 100.9-2.6 183.7 62.6 201.8 158.9l7.7 46.9c-2.6 5.2 0 13 10.4 15.6 18.1 5.2 23.3 20.9 25.9 36.5 2.7 36.7-15.3 67.9-51.5 78.3z m0 0" p-id="5270"></path></svg>
