<svg t="1687682265305" class="icon" viewBox="0 0 1024 1024" version="1.1" xmlns="http://www.w3.org/2000/svg" p-id="8284" width="200" height="200"><path d="M736 128h-448A96 96 0 0 0 192 224v576A96 96 0 0 0 288 896h448a96 96 0 0 0 96-96v-576A96 96 0 0 0 736 128z m-448 64h448a32 32 0 0 1 32 32v576a32 32 0 0 1-32 32h-448a32 32 0 0 1-32-32v-576a32 32 0 0 1 32-32z" p-id="8285"></path><path d="M458.688 640a32 32 0 1 1 0 64H352a32 32 0 1 1 0-64h106.688z m213.312 0a32 32 0 1 1 0 64 32 32 0 0 1 0-64z m-128-128a32 32 0 0 1 0 64h-192a32 32 0 0 1 0-64h192z m128 0a32 32 0 1 1 0 64 32 32 0 0 1 0-64z m-128-128a32 32 0 0 1 0 64h-192a32 32 0 0 1 0-64h192z m128 0a32 32 0 1 1 0 64 32 32 0 0 1 0-64z m-128-128a32 32 0 0 1 0 64h-192a32 32 0 0 1 0-64h192z m128 0a32 32 0 1 1 0 64 32 32 0 0 1 0-64z" p-id="8286"></path></svg>
